<svg width="91" height="85" viewBox="0 0 91 85" fill="none" xmlns="http://www.w3.org/2000/svg">
<path fill-rule="evenodd" clip-rule="evenodd" d="M19 2.80005V42.0388C16.5908 42.1508 14.3574 42.5045 12.3 43.1001C9.7 43.7667 7.5 44.9333 5.7 46.6001C3.90002 48.2001 2.5 50.3667 1.5 53.1001C0.5 55.8334 0 59.2001 0 63.2001C0 66.5333 0.26672 69.6667 0.80005 72.6001C1.33337 75.5333 1.8667 77.7667 2.40002 79.3L12.2 77.8C11.6667 76.3334 11.2 74.4333 10.8 72.1001C10.4 69.7667 10.2 67.2001 10.2 64.4C10.2 62.3334 10.4667 60.6333 11 59.3C11.5333 57.9 12.3 56.8 13.3 56C14.2333 55.1333 15.3333 54.5333 16.6 54.2001C17.8667 53.8667 19.2 53.7001 20.6 53.7001H22.6C22.2 55.3667 21.9333 56.9333 21.8 58.4C21.6 59.8667 21.5 61.2667 21.5 62.6001C21.5 65.4668 21.8 68.2334 22.4 70.9C22.9333 73.5 23.8667 75.8 25.2 77.8C26.4667 79.8 28.1333 81.4 30.2 82.6001C32.2667 83.7334 34.8 84.3 37.8 84.3C40.9333 84.3 43.5667 83.8 45.7 82.8C47.8333 81.7334 49.5667 80.3 50.9 78.5C52.2333 76.6334 53.2 74.4 53.8 71.8C54.4 69.2001 54.7 66.3334 54.7 63.2001C54.7 59.6921 54.5352 56.4587 54.2057 53.5H78.7001V70.3L90.8 68.3V23C90.8 19.5333 90.5 16.4333 89.9 13.7001C89.3 11.0333 88.2667 8.7334 86.8 6.80005C86.7267 6.70679 86.6522 6.61462 86.5764 6.52344C85.118 4.47632 83.0928 2.90186 80.5 1.80005C77.9 0.599976 74.5667 0 70.5 0C68.9 0 67.3 0.166626 65.7 0.5C64.1667 0.833374 62.7 1.26672 61.3 1.80005C59.9 2.26672 58.6333 2.80005 57.5 3.40002C56.3667 4 55.4333 4.56665 54.7 5.09998C53.1667 3.56665 51.2333 2.33337 48.9 1.40002C46.6333 0.466675 43.7 0 40.1 0C35.9 0 31.9 0.300049 28.1 0.900024C24.3667 1.5 21.3334 2.1333 19 2.80005ZM48.8 25.9C48.8 20.4333 48.1 16.5 46.7 14.1C45.3667 11.6333 42.8333 10.4 39.1 10.4C37.7667 10.4 36.3 10.5 34.7 10.7C33.1 10.9 31.9 11.0667 31.1 11.2V42H48.8V25.9ZM76.2831 13.5717C76.3955 13.741 76.5011 13.9171 76.6 14.1C77.9333 16.5 78.6 20.4333 78.6 25.9V43.4H60.9V24.5C60.9 22.3667 60.8 20.3667 60.6 18.5C60.4 16.6333 60.0333 14.8667 59.5 13.2C60.3231 12.6301 61.5372 12.0603 63.1421 11.4905C63.4817 11.3951 63.8348 11.2982 64.2 11.2C65.8667 10.7333 67.8 10.5 70 10.5C72.8857 10.5 74.9313 11.964 76.2831 13.5717ZM45.1 62.2001C45.1 58.4668 44.9 55.6333 44.5 53.7001H31.1C30.9 54.3667 30.7 55.3334 30.5 56.6001C30.3 57.8667 30.2 59.2667 30.2 60.8C30.2 62.1333 30.3 63.5 30.5 64.9C30.7 66.2334 31.0667 67.4668 31.6 68.6001C32.1333 69.6667 32.9 70.5333 33.9 71.2001C34.8333 71.8667 36.0333 72.2001 37.5 72.2001C40.3667 72.2001 42.3667 71.3 43.5 69.5C44.5667 67.7001 45.1 65.2667 45.1 62.2001Z" fill="white"/>
</svg>
