<svg width="32" height="29" viewBox="0 0 32 29" fill="none" xmlns="http://www.w3.org/2000/svg">
<path fill-rule="evenodd" clip-rule="evenodd" d="M8.94989 1.91911V0.876842C9.6806 0.668048 10.6305 0.469728 11.7996 0.281845C12.9896 0.093961 14.2422 0 15.5574 0C16.6848 0 17.6033 0.14614 18.3131 0.438419C19.0438 0.7307 19.6493 1.1169 20.1294 1.59707C20.3591 1.43006 20.6514 1.25261 21.0063 1.06472C21.3612 0.876842 21.7578 0.709828 22.1962 0.56369C22.6346 0.396676 23.0939 0.260973 23.5741 0.156576C24.0751 0.0521793 24.5762 0 25.0772 0C26.3507 0 27.3946 0.187884 28.2088 0.56369C29.0207 0.908724 29.6549 1.40177 30.1116 2.04283C30.1353 2.07138 30.1587 2.10025 30.1816 2.12945C30.6409 2.73488 30.9645 3.4551 31.1524 4.29022C31.3403 5.14612 31.4342 6.1169 31.4342 7.2025V21.3883L29.9342 21.6362V23.3883V23.8124L29.5158 23.8816L25.7267 24.5079L25.1451 24.604V24.0146V19.2536H20.1252C20.128 19.4305 20.1294 19.6097 20.1294 19.7913C20.1294 20.7725 20.0355 21.6702 19.8476 22.4843C19.6597 23.2985 19.357 23.9979 18.9394 24.5825C18.6969 24.9099 18.4121 25.1986 18.0851 25.4485C17.8957 25.9717 17.6502 26.4476 17.3463 26.8731L17.3413 26.8801L17.3412 26.8801C16.8739 27.511 16.2684 28.0094 15.5347 28.3762L15.5233 28.3819L15.5233 28.3817C14.7707 28.7345 13.8686 28.8987 12.8372 28.8987C11.8361 28.8987 10.9551 28.7097 10.2168 28.3048L10.206 28.2989L10.2061 28.2988C9.49178 27.884 8.9119 27.3283 8.47217 26.6357C8.0179 25.9529 7.70413 25.1745 7.52577 24.3077C7.33008 23.4363 7.23277 22.5346 7.23277 21.6034C7.23277 21.1643 7.26544 20.7069 7.3298 20.2316C7.35699 19.9366 7.40022 19.6315 7.45908 19.3163H7.45094C7.05251 19.3163 6.67795 19.3637 6.32559 19.4564L6.32552 19.4564C6.2931 19.465 6.26118 19.4742 6.22976 19.484C6.20602 19.6954 6.19415 19.923 6.19415 20.167C6.19415 21.0439 6.25678 21.8476 6.38204 22.5783C6.50731 23.309 6.65345 23.904 6.82046 24.3632L4.90354 24.6567C5.01906 25.2946 5.14915 25.8041 5.29036 26.1924L5.49867 26.7653L4.89611 26.8575L1.82722 27.3272L1.41599 27.3902L1.27932 26.9972C1.09954 26.4804 0.927092 25.751 0.758603 24.8243L1.25054 24.7349L0.758602 24.8243C0.585639 23.873 0.5 22.8616 0.5 21.7913C0.5 20.5004 0.660895 19.384 1.00017 18.4566C1.33517 17.5409 1.81379 16.7885 2.44897 16.2226C2.96601 15.7448 3.57367 15.3887 4.26471 15.151C4.42431 14.9454 4.59773 14.7594 4.78497 14.5929C5.25343 14.1591 5.8084 13.8335 6.44989 13.6161V2.87684V2.4997L6.81252 2.39608C7.39796 2.2288 8.11138 2.07009 8.94989 1.91911ZM8.94989 2.93566C8.3801 3.04135 7.88046 3.14944 7.44989 3.25964V13.3488C7.92303 13.2504 8.42304 13.189 8.94989 13.1645V2.93566ZM3.44684 16.6921C3.33447 16.7757 3.22712 16.8649 3.12469 16.9598L3.11722 16.9667L3.11715 16.9666C2.6269 17.4024 2.22992 18.0058 1.93929 18.8002L1.46978 18.6284L1.93929 18.8002C1.65226 19.5848 1.5 20.5769 1.5 21.7913C1.5 22.8085 1.58141 23.7596 1.74247 24.6454C1.86466 25.3175 1.98469 25.8582 2.10121 26.2736L4.16887 25.9572C4.0753 25.6159 3.99086 25.2322 3.91471 24.808L3.75157 24.833C3.58456 24.3528 3.41755 23.6534 3.25054 22.7349C3.08352 21.8163 3 20.8351 3 19.7913C3 18.5695 3.14895 17.5365 3.44684 16.6921ZM6.51839 18.3929C6.82096 18.3416 7.13197 18.3163 7.45094 18.3163H8.07724H8.71145L8.56343 18.933C8.44292 19.4351 8.3639 19.9016 8.32467 20.3333L8.32365 20.3445L8.32213 20.3556C8.26223 20.795 8.23277 21.2107 8.23277 21.6034C8.23277 22.4659 8.32301 23.2954 8.50241 24.0927L8.5045 24.102L8.50441 24.102C8.65981 24.8596 8.92925 25.5186 9.30747 26.0859L9.31396 26.0956L9.31384 26.0957C9.66598 26.6517 10.1271 27.0954 10.7029 27.4309C11.2582 27.734 11.9621 27.8987 12.8372 27.8987C13.765 27.8987 14.5105 27.7508 15.0932 27.4789C15.6915 27.1788 16.1689 26.7816 16.5351 26.2883C16.5591 26.2546 16.5827 26.2205 16.6059 26.1859C16.0873 26.3278 15.4977 26.3987 14.8372 26.3987C13.8977 26.3987 13.1044 26.2213 12.4572 25.8664C11.81 25.4906 11.2881 24.9896 10.8914 24.3632C10.8727 24.3351 10.8542 24.3068 10.8359 24.2783C10.6832 24.1076 10.5537 23.9165 10.4484 23.7059L10.4431 23.6952L10.4432 23.6952C10.254 23.2931 10.126 22.8597 10.0567 22.3977L10.0562 22.3943C10.0559 22.3924 10.0556 22.3906 10.0554 22.3887C10.041 22.3272 10.0275 22.2651 10.0146 22.2025C9.82672 21.3674 9.73277 20.5011 9.73277 19.6034C9.73277 19.1858 9.76409 18.7474 9.82672 18.2881C9.86846 17.8288 9.95198 17.3382 10.0772 16.8163H9.45094C9.01252 16.8163 8.595 16.8685 8.19833 16.9729C7.80166 17.0772 7.45719 17.2651 7.16492 17.5365C6.89521 17.7523 6.67969 18.0378 6.51839 18.3929ZM14.5225 22.6011C14.1621 22.5723 13.8599 22.4708 13.6159 22.2965C13.3027 22.0877 13.0626 21.8163 12.8956 21.4823C12.7286 21.1274 12.6138 20.7411 12.5511 20.3236C12.5023 19.9815 12.4725 19.6457 12.4617 19.3163H14.5124C14.5845 19.8509 14.6232 20.5681 14.6232 21.4781C14.6232 21.9055 14.588 22.2783 14.5225 22.6011ZM15.5523 22.5152C15.6003 22.1905 15.6232 21.8441 15.6232 21.4781C15.6232 20.2994 15.5607 19.3712 15.4249 18.715L15.3424 18.3163H14.9353H12.4832C12.4988 18.1096 12.5215 17.9124 12.5511 17.7244C12.6138 17.3278 12.6764 17.0251 12.739 16.8163H16.9353C17.0605 17.4217 17.1232 18.309 17.1232 19.4781C17.1232 20.4384 16.9562 21.2004 16.6221 21.7641C16.3858 22.1394 16.0292 22.3898 15.5523 22.5152ZM20.093 18.2536H25.6451H26.1451V18.7536V23.4252L28.9342 22.9642V21.8015L27.6451 22.0146V16.7536H19.9746C20.0278 17.2308 20.0672 17.7308 20.093 18.2536ZM17.6242 4.41545C18.0626 5.16701 18.2818 6.39873 18.2818 8.11064V13.1524H16.7818V10.1106C16.7818 8.38533 16.5659 7.04259 16.0602 6.17051C15.5254 5.18799 14.5237 4.75678 13.2443 4.75678C13.0811 4.75678 12.9126 4.7613 12.739 4.77025V3.50731C12.9896 3.46556 13.3653 3.41336 13.8664 3.35073C14.3674 3.2881 14.8267 3.25678 15.2443 3.25678C16.4133 3.25678 17.2067 3.64299 17.6242 4.41545ZM15.7818 13.1524H12.739V5.77171C12.9151 5.76172 13.0834 5.75678 13.2443 5.75678C14.2999 5.75678 14.8831 6.09589 15.1844 6.6532L15.1882 6.66036L15.1923 6.66738C15.5605 7.29863 15.7818 8.41676 15.7818 10.1106V13.1524ZM26.9875 4.41545C26.9565 4.35817 26.9234 4.30303 26.8882 4.25001C26.4649 3.74655 25.8243 3.2881 24.9207 3.2881C24.2317 3.2881 23.6263 3.36116 23.1044 3.50731C22.99 3.53806 22.8794 3.5684 22.7731 3.59828C22.2705 3.77671 21.8903 3.95514 21.6326 4.13361C21.7074 4.36763 21.7718 4.60794 21.8257 4.85455C22.1701 4.80983 22.5354 4.7881 22.9207 4.7881C24.015 4.7881 24.7843 5.34953 25.2709 5.92823L25.2891 5.94988L25.3048 5.97345C25.348 6.03859 25.3884 6.10586 25.4259 6.17515C25.9076 7.04404 26.1138 8.38408 26.1138 10.1106V13.5908H27.6138V8.11064C27.6138 6.39873 27.405 5.16701 26.9875 4.41545ZM25.1138 13.5908V10.1106C25.1138 8.41505 24.9028 7.29257 24.5504 6.65826L24.5476 6.65329L24.5476 6.65327C24.5282 6.61729 24.5079 6.58275 24.4867 6.54959C24.1277 6.13136 23.6213 5.7881 22.9207 5.7881C22.5823 5.7881 22.2698 5.80667 21.9822 5.84268C22.0414 6.4131 22.071 7.02295 22.071 7.67223V13.5908H25.1138Z" fill="white"/>
</svg>
