<svg width="30" height="29" fill="none" xmlns="http://www.w3.org/2000/svg">
    <path fill-rule="evenodd" clip-rule="evenodd" d="M7.278 2.215v-.642c.739-.211 1.699-.412 2.88-.601a24.342 24.342 0 0 1 3.798-.285c1.139 0 2.067.147 2.785.443.738.295 1.35.685 1.835 1.17.232-.168.527-.347.886-.537.359-.19.76-.359 1.203-.507a9.685 9.685 0 0 1 1.392-.411 7.43 7.43 0 0 1 1.519-.158c1.287 0 2.342.19 3.165.57.82.348 1.46.846 1.922 1.494a4.1 4.1 0 0 1 .071.088c.464.611.791 1.34.981 2.183.19.865.285 1.846.285 2.943v14.336l-1.266.209v.74l-3.829.633v-5.317h-6.4c.047.668.07 1.375.07 2.12 0 .992-.094 1.9-.284 2.722-.19.823-.496 1.53-.918 2.12a4.514 4.514 0 0 1-1.58 1.328c-.37.396-.813.723-1.331.983-.675.316-1.508.474-2.5.474-.95 0-1.751-.179-2.405-.538a4.547 4.547 0 0 1-1.582-1.519 6.103 6.103 0 0 1-.886-2.183c-.19-.844-.285-1.72-.285-2.627 0-.422.031-.865.095-1.329a9.967 9.967 0 0 1 .253-1.487h-.633c-.443 0-.865.053-1.266.158a2.62 2.62 0 0 0-.188.057c-.125.177-.231.38-.318.608-.169.422-.253.96-.253 1.614 0 .886.063 1.698.19 2.436.126.738.274 1.34.443 1.804l-1.484.227a8.752 8.752 0 0 0 .218.722l-3.101.475c-.17-.485-.338-1.192-.507-2.12A16.628 16.628 0 0 1 0 21.636c0-1.266.158-2.331.475-3.196.316-.865.76-1.55 1.329-2.057a4.49 4.49 0 0 1 1.016-.707c.08-.085.163-.166.25-.242.57-.528 1.265-.897 2.088-1.108.275-.08.56-.146.855-.198V2.522c.367-.105.789-.207 1.265-.307Zm0 .324c-.347.073-.664.148-.949.224v11.315c.306-.043.623-.073.95-.088V2.54ZM2.258 16.41a4.14 4.14 0 0 0-.24.205l-.002.002-.002.002c-.523.465-.94 1.104-1.242 1.93-.3.82-.456 1.845-.456 3.087 0 1.038.084 2.01.249 2.918.14.77.278 1.376.413 1.824L3.443 26a9.316 9.316 0 0 1-.115-.418l-1.303.2c-.168-.486-.337-1.192-.506-2.12a16.628 16.628 0 0 1-.253-2.975c0-1.266.158-2.332.475-3.197a5.9 5.9 0 0 1 .517-1.08Zm3.21 2.004c.338-.067.689-.1 1.051-.1h1.034l-.093.39c-.124.514-.206.995-.246 1.442v.007l-.002.007c-.061.451-.092.88-.092 1.286 0 .885.093 1.737.277 2.557l.001.003v.003c.162.787.443 1.476.84 2.072l.002.003.002.003a4.23 4.23 0 0 0 1.47 1.413c.596.326 1.341.497 2.25.497.958 0 1.741-.153 2.362-.443.233-.117.45-.248.65-.394a6.838 6.838 0 0 1-1.746.204c-.95 0-1.751-.18-2.405-.538a4.547 4.547 0 0 1-1.583-1.52 6.103 6.103 0 0 1-.886-2.183c-.19-.844-.284-1.719-.284-2.626 0-.422.031-.865.095-1.33.042-.463.126-.96.253-1.487h-.633c-.443 0-.865.053-1.266.159a2.41 2.41 0 0 0-1.051.575Zm13.013-.164h6.74v5.26l3.197-.529v-.419l-2.247.371v-5.316h-7.752c.023.207.044.418.062.633ZM16.044 5.149c.443.76.665 2.004.665 3.734v5.095h-.95V9.832c0-1.738-.219-3.053-.705-3.889-.496-.914-1.43-1.332-2.68-1.332-.39 0-.813.026-1.266.077v-.457c.253-.042.633-.095 1.139-.158.506-.064.97-.095 1.392-.095 1.182 0 1.983.39 2.405 1.17Zm-4.936-.142c.457-.053.879-.08 1.265-.08 1.182 0 1.984.39 2.405 1.171.444.76.665 2.004.665 3.734v4.146h-4.335V5.007Zm14.398.142a2.15 2.15 0 0 0-.1-.167c-.428-.51-1.075-.973-1.988-.973-.697 0-1.308.074-1.836.222l-.335.092c-.507.18-.892.36-1.152.54l.014.046.124-.034c.56-.157 1.202-.233 1.919-.233 1.034 0 1.763.529 2.23 1.085l.012.014.01.015c.04.061.079.125.114.19.463.834.672 2.147.672 3.886v4.589h.95V8.883c0-1.73-.212-2.975-.634-3.734Zm-.633 9.272V9.832c0-1.73-.21-2.974-.633-3.734a2.23 2.23 0 0 0-.1-.167c-.428-.509-1.075-.972-1.988-.972-.696 0-1.308.074-1.836.221l-.118.033c.114.423.195.866.245 1.328.063.59.095 1.224.095 1.899v5.98h4.335Zm-9.525 3.26c.127.611.19 1.508.19 2.69 0 .97-.169 1.74-.506 2.31-.185.292-.441.51-.77.652.222-.56.327-1.236.327-2.013 0-1.188-.064-2.11-.197-2.754l-.052-.253h-3.374c.047-.264.094-.475.142-.633h4.24Zm-1.49 5.781c-.219.049-.46.073-.725.073-.464 0-.844-.106-1.14-.317a2.105 2.105 0 0 1-.727-.822 4.196 4.196 0 0 1-.348-1.171 9.17 9.17 0 0 1-.005-2.595h3.17c.126.611.19 1.508.19 2.69 0 .878-.14 1.592-.416 2.142Z" fill="#fff"/>
</svg>
