<svg width="33" height="31" viewBox="0 0 33 31" fill="none" xmlns="http://www.w3.org/2000/svg">
<path fill-rule="evenodd" clip-rule="evenodd" d="M7.27753 2.92513V15.8895C6.48154 15.9265 5.74363 16.0433 5.06388 16.2401C4.20485 16.4604 3.47797 16.8458 2.88326 17.3965C2.28855 17.9251 1.82599 18.641 1.49559 19.5441C1.1652 20.4472 1 21.5595 1 22.8811C1 23.9824 1.08812 25.0176 1.26433 25.9868C1.44054 26.9559 1.61675 27.6938 1.79296 28.2004L5.03084 27.7048C4.85464 27.2203 4.70044 26.5925 4.56828 25.8216C4.43612 25.0507 4.37004 24.2027 4.37004 23.2775C4.37004 22.5947 4.45816 22.033 4.63436 21.5925C4.81056 21.13 5.06388 20.7665 5.39427 20.5022C5.70263 20.2158 6.06607 20.0176 6.48458 19.9075C6.90309 19.7974 7.34361 19.7423 7.80617 19.7423H8.46696C8.3348 20.293 8.24668 20.8106 8.20264 21.2952C8.13656 21.7797 8.10352 22.2423 8.10352 22.6829C8.10352 23.63 8.20264 24.5441 8.40088 25.4251C8.57708 26.2841 8.88547 27.0441 9.32599 27.7048C9.7445 28.3656 10.2951 28.8943 10.978 29.2908C11.6608 29.6652 12.4978 29.8524 13.489 29.8524C14.5242 29.8524 15.3943 29.6872 16.0991 29.3568C16.804 29.0044 17.3767 28.5308 17.8172 27.9361C18.2577 27.3194 18.5771 26.5815 18.7753 25.7225C18.9736 24.8635 19.0727 23.9163 19.0727 22.8811C19.0727 21.7221 19.0182 20.6538 18.9094 19.6762H27.0022V25.2269L31 24.5661V9.59912C31 8.45373 30.9009 7.4295 30.7026 6.52646C30.5044 5.64536 30.163 4.88548 29.6784 4.24671C29.6542 4.2159 29.6296 4.18545 29.6045 4.15532C29.1227 3.47896 28.4536 2.95876 27.5969 2.59473C26.7379 2.19823 25.6366 2 24.293 2C23.7643 2 23.2357 2.05505 22.707 2.1652C22.2005 2.27534 21.7159 2.41852 21.2533 2.59473C20.7907 2.74892 20.3722 2.92513 19.9978 3.12335C19.6234 3.32159 19.315 3.50881 19.0727 3.68502C18.5661 3.17841 17.9273 2.77094 17.1564 2.46256C16.4075 2.15419 15.4383 2 14.2489 2C12.8612 2 11.5396 2.09914 10.2841 2.29736C9.05067 2.49559 8.04848 2.70483 7.27753 2.92513ZM17.1233 10.5573C17.1233 8.75109 16.8921 7.45154 16.4295 6.65859C15.989 5.8436 15.152 5.43612 13.9185 5.43612C13.478 5.43612 12.9934 5.46916 12.4648 5.53524C11.9361 5.60132 11.5396 5.6564 11.2753 5.70044V15.8767H17.1233V10.5573ZM26.2037 6.48404C26.2408 6.53998 26.2757 6.59816 26.3084 6.65859C26.7489 7.45154 26.9692 8.75109 26.9692 10.5573V16.3392H21.1211V10.0947C21.1211 9.38988 21.0881 8.72909 21.022 8.11233C20.9559 7.49558 20.8348 6.91191 20.6586 6.36123C20.9305 6.17294 21.3317 5.98468 21.8619 5.79642C21.9741 5.7649 22.0908 5.73289 22.2115 5.70044C22.7621 5.54624 23.4009 5.46916 24.1278 5.46916C25.0812 5.46916 25.757 5.95286 26.2037 6.48404ZM15.9009 22.5507C15.9009 21.3172 15.8348 20.381 15.7026 19.7423H11.2753C11.2093 19.9626 11.1432 20.282 11.0771 20.7005C11.011 21.119 10.978 21.5815 10.978 22.0881C10.978 22.5286 11.011 22.9802 11.0771 23.4427C11.1432 23.8833 11.2643 24.2908 11.4405 24.6652C11.6167 25.0176 11.87 25.304 12.2004 25.5243C12.5088 25.7445 12.9053 25.8547 13.3899 25.8547C14.337 25.8547 14.9978 25.5573 15.3722 24.9626C15.7247 24.3679 15.9009 23.5639 15.9009 22.5507Z" stroke="#9747FF" stroke-width="1.2"/>
<path fill-rule="evenodd" clip-rule="evenodd" d="M9.27753 0.925127V13.8895C8.48154 13.9265 7.74363 14.0433 7.06388 14.2401C6.20485 14.4604 5.47797 14.8458 4.88326 15.3965C4.28855 15.9251 3.82599 16.641 3.49559 17.5441C3.1652 18.4472 3 19.5595 3 20.8811C3 21.9824 3.08812 23.0176 3.26433 23.9868C3.44054 24.9559 3.61675 25.6938 3.79296 26.2004L7.03084 25.7048C6.85464 25.2203 6.70044 24.5925 6.56828 23.8216C6.43612 23.0507 6.37004 22.2027 6.37004 21.2775C6.37004 20.5947 6.45816 20.033 6.63436 19.5925C6.81056 19.13 7.06388 18.7665 7.39427 18.5022C7.70263 18.2158 8.06607 18.0176 8.48458 17.9075C8.90309 17.7974 9.34361 17.7423 9.80617 17.7423H10.467C10.3348 18.293 10.2467 18.8106 10.2026 19.2952C10.1366 19.7797 10.1035 20.2423 10.1035 20.6829C10.1035 21.63 10.2026 22.5441 10.4009 23.4251C10.5771 24.2841 10.8855 25.0441 11.326 25.7048C11.7445 26.3656 12.2951 26.8943 12.978 27.2908C13.6608 27.6652 14.4978 27.8524 15.489 27.8524C16.5242 27.8524 17.3943 27.6872 18.0991 27.3568C18.804 27.0044 19.3767 26.5308 19.8172 25.9361C20.2577 25.3194 20.5771 24.5815 20.7753 23.7225C20.9736 22.8635 21.0727 21.9163 21.0727 20.8811C21.0727 19.7221 21.0182 18.6538 20.9094 17.6762H29.0022V23.2269L33 22.5661V7.59912C33 6.45373 32.9009 5.4295 32.7026 4.52646C32.5044 3.64536 32.163 2.88548 31.6784 2.24671C31.6542 2.2159 31.6296 2.18545 31.6045 2.15532C31.1227 1.47896 30.4536 0.958764 29.5969 0.59473C28.7379 0.19823 27.6366 0 26.293 0C25.7643 0 25.2357 0.0550526 24.707 0.165198C24.2005 0.275344 23.7159 0.41852 23.2533 0.59473C22.7907 0.748916 22.3722 0.925127 21.9978 1.12335C21.6234 1.32159 21.315 1.50881 21.0727 1.68502C20.5661 1.17841 19.9273 0.770937 19.1564 0.462562C18.4075 0.154188 17.4383 0 16.2489 0C14.8612 0 13.5396 0.0991351 12.2841 0.297365C11.0507 0.495595 10.0485 0.704835 9.27753 0.925127ZM19.1233 8.55727C19.1233 6.75109 18.8921 5.45154 18.4295 4.65859C17.989 3.8436 17.152 3.43612 15.9185 3.43612C15.478 3.43612 14.9934 3.46916 14.4648 3.53524C13.9361 3.60132 13.5396 3.6564 13.2753 3.70044V13.8767H19.1233V8.55727ZM28.2037 4.48404C28.2408 4.53998 28.2757 4.59816 28.3084 4.65859C28.7489 5.45154 28.9692 6.75109 28.9692 8.55727V14.3392H23.1211V8.09471C23.1211 7.38988 23.0881 6.72909 23.022 6.11233C22.9559 5.49558 22.8348 4.91191 22.6586 4.36123C22.9305 4.17294 23.3317 3.98468 23.8619 3.79642C23.9741 3.7649 24.0908 3.73289 24.2115 3.70044C24.7621 3.54624 25.4009 3.46916 26.1278 3.46916C27.0812 3.46916 27.757 3.95286 28.2037 4.48404ZM17.9009 20.5507C17.9009 19.3172 17.8348 18.381 17.7026 17.7423H13.2753C13.2093 17.9626 13.1432 18.282 13.0771 18.7005C13.011 19.119 12.978 19.5815 12.978 20.0881C12.978 20.5286 13.011 20.9802 13.0771 21.4427C13.1432 21.8833 13.2643 22.2908 13.4405 22.6652C13.6167 23.0176 13.87 23.304 14.2004 23.5243C14.5088 23.7445 14.9053 23.8547 15.3899 23.8547C16.337 23.8547 16.9978 23.5573 17.3722 22.9626C17.7247 22.3679 17.9009 21.5639 17.9009 20.5507Z" fill="white"/>
</svg>
