<svg width="24" height="19" viewBox="0 0 24 19" fill="none" xmlns="http://www.w3.org/2000/svg">
<path d="M22 9.23638C22 7.99182 22.0001 6.36953 21.7578 5.89418C21.5448 5.47603 21.2048 5.13608 20.7867 4.92303C20.3114 4.68082 19.6891 4.68082 18.4445 4.68082H14.5839C14.0404 4.68082 13.7686 4.68082 13.5128 4.61942C13.2862 4.56499 13.0694 4.4752 12.8705 4.35336C12.6463 4.21593 12.454 4.02377 12.0697 3.63942L11.9304 3.5C11.6247 3 11.3538 2.18706 11.1296 2.04963C10.9307 1.92779 10.7139 1.838 10.4873 1.78357C10.2315 1.72217 9.95971 1.72217 9.41618 1.72217H5.5556C4.31105 1.72217 3.68876 1.72217 3.2134 1.96438C2.79526 2.17742 2.4553 2.51738 2.24226 2.93552C2.00005 3.41088 2.00005 4.03316 2.00005 5.27772L2 9.23638M22 9.23638C22 11.3787 22.0001 13.7222 22.0001 13.7222C22.0001 14.9667 22.0001 15.5891 21.7578 16.0644C21.5448 16.4825 21.2048 16.8225 20.7867 17.0355C20.3114 17.2777 19.6891 17.2777 18.4445 17.2777H5.5556C4.31104 17.2777 3.68876 17.2777 3.2134 17.0355C2.79526 16.8225 2.4553 16.4825 2.24226 16.0644C2.00005 15.5891 2.00005 14.9667 2.00005 13.7222L2 9.23638M22 9.23638C21.6246 8.5 21.1246 8 20.1246 8C19.1247 8 4.62468 8 3.62463 8C2.62458 8 2 9.23638 2 9.23638" stroke="white" stroke-width="2.22222" stroke-linecap="round" stroke-linejoin="round"/>
</svg>
