<svg width="20" height="17" viewBox="0 0 20 17" fill="none" xmlns="http://www.w3.org/2000/svg">
<path d="M19.9484 2.88577C19.8582 2.43162 19.6569 2.01604 19.3757 1.67272C19.3164 1.59791 19.2544 1.53092 19.1873 1.46393C18.689 0.963223 17.9897 0.650879 17.2258 0.650879H2.77426C2.01032 0.650879 1.31352 0.963223 0.812931 1.46393C0.745939 1.53092 0.683986 1.59791 0.624533 1.67272C0.343165 2.016 0.141797 2.43162 0.0541407 2.88577C0.018125 3.06104 0 3.24217 0 3.4253V13.575C0 13.9644 0.0825783 14.3387 0.229844 14.6767C0.366446 14.9994 0.567853 15.2913 0.812892 15.5361C0.875002 15.5981 0.936682 15.655 1.00399 15.7117C1.48391 16.1092 2.1034 16.3492 2.77426 16.3492H17.2258C17.8969 16.3492 18.5191 16.1092 18.9962 15.7092C19.0633 15.655 19.1253 15.5981 19.1873 15.5361C19.4322 15.2913 19.6336 14.9994 19.773 14.6767V14.6742C19.9202 14.3362 20 13.9644 20 13.5751V3.4253C20 3.24217 19.9822 3.06104 19.9484 2.88577ZM1.81676 2.46764C2.06461 2.22006 2.39747 2.07018 2.77426 2.07018H17.2258C17.6026 2.07018 17.9384 2.22006 18.1833 2.46764C18.2271 2.51174 18.2684 2.56088 18.3048 2.60971L10.7303 9.21109C10.5214 9.39418 10.2634 9.48461 10 9.48461C9.73932 9.48461 9.48143 9.39418 9.26974 9.21109L1.69813 2.6069C1.73164 2.55807 1.77293 2.51174 1.81676 2.46764ZM1.4193 13.575V4.07561L6.90072 8.85746L1.42207 13.6342C1.4193 13.6161 1.4193 13.5957 1.4193 13.575ZM17.2258 14.9296H2.77426C2.52891 14.9296 2.29934 14.8651 2.1034 14.7518L7.8838 9.71433L8.42345 10.1838C8.87506 10.5762 9.44018 10.775 10 10.775C10.5628 10.775 11.1278 10.5762 11.5794 10.1838L12.1188 9.71433L17.8969 14.7518C17.7007 14.8651 17.4711 14.9296 17.2258 14.9296ZM18.5807 13.575C18.5807 13.5957 18.5807 13.6161 18.5781 13.6342L13.0995 8.86023L18.5807 4.07815V13.575Z" fill="white"/>
</svg>
