<svg width="22" height="22" viewBox="0 0 22 22" fill="none" xmlns="http://www.w3.org/2000/svg">
<path d="M18.2222 21C8.71067 21 0.999999 13.2893 0.999999 3.77778C0.999999 3.34864 1.01567 2.92318 1.04656 2.50191C1.082 2.01847 1.09966 1.77673 1.22633 1.5567C1.33122 1.37446 1.51722 1.20162 1.70667 1.11028C1.93533 1 2.20211 1 2.73556 1L5.86589 1C6.31455 1 6.53889 1 6.73111 1.07383C6.901 1.13906 7.05222 1.24499 7.17156 1.38233C7.30667 1.53781 7.38333 1.74862 7.53667 2.17023L8.83233 5.73339C9.01067 6.22392 9.09989 6.46919 9.08478 6.70189C9.07144 6.90708 9.00133 7.10453 8.88244 7.27229C8.74767 7.46253 8.52389 7.59681 8.07622 7.86536L6.55556 8.77778C7.889 11.7221 10.279 14.109 13.2222 15.4444L14.1346 13.9238C14.4032 13.4761 14.5375 13.2523 14.7277 13.1176C14.8955 12.9987 15.0929 12.9286 15.2981 12.9152C15.5308 12.9001 15.7761 12.9893 16.2666 13.1677L19.8298 14.4633C20.2514 14.6167 20.4622 14.6933 20.6177 14.8284C20.755 14.9478 20.8609 15.099 20.9262 15.2689C21 15.4611 21 15.6854 21 16.1341L21 19.2644C21 19.7979 21 20.0647 20.8897 20.2933C20.7984 20.4828 20.6255 20.6688 20.4433 20.7737C20.2233 20.9003 19.9815 20.918 19.4981 20.9534C19.0768 20.9843 18.6514 21 18.2222 21Z" stroke="white" stroke-width="1.5" stroke-linecap="round" stroke-linejoin="round"/>
</svg>
